# Blender 4.5.4 LTS
# www.blender.org
o Cart
v 0.038924 0.053195 0.048655
v -0.038924 0.053195 0.048655
v -0.038924 0.053195 -0.048655
v -0.038924 0.053195 -0.038924
v -0.038924 0.014272 -0.048655
v -0.038924 0.014272 -0.038924
v 0.038924 0.053195 -0.048655
v -0.038924 0.004541 -0.048655
v 0.038924 0.014272 -0.048655
v 0.038924 0.004541 -0.048655
v -0.038924 0.004541 0.048655
v -0.038924 0.014272 0.048655
v 0.038924 0.004541 0.048655
v 0.038924 0.014272 0.048655
v 0.038924 0.053195 -0.038924
v 0.029193 0.053195 -0.038924
v 0.038924 0.014272 -0.038924
v 0.029193 0.014272 -0.038924
v 0.029193 0.053195 0.038924
v 0.038924 0.053195 0.038924
v 0.029193 0.014272 0.038924
v 0.038924 0.014272 0.038924
v -0.038924 0.053195 0.038924
v -0.029193 0.053195 0.038924
v -0.038924 0.014272 0.038924
v -0.029193 0.014272 0.038924
v -0.029193 0.053195 -0.038924
v -0.029193 0.014272 -0.038924
vn -0.0000 -0.0000 -1.0000
vn 1.0000 -0.0000 -0.0000
vn -0.0000 -0.0000 1.0000
vn -1.0000 -0.0000 -0.0000
vn -0.0000 1.0000 -0.0000
vn -0.0000 -1.0000 -0.0000
vt 0.281250 0.687500
vt 0.031250 0.937500
vt 0.031250 0.687500
vt 0.000000 0.937500
vt 0.000000 0.687500
vt 0.562500 0.687500
vt 0.312500 0.937500
vt 0.312500 0.687500
vt 0.281250 0.937500
vt 0.031250 1.000000
vt 0.281250 1.000000
vt 0.531250 1.000000
vt 0.531250 0.937500
vt 0.343750 0.125000
vt 0.031250 0.625000
vt 0.031250 0.125000
vt 0.000000 0.625000
vt 0.000000 0.125000
vt 0.687500 0.125000
vt 0.375000 0.625000
vt 0.375000 0.125000
vt 0.343750 0.625000
vt 0.343750 0.687500
vt 0.656250 0.687500
vt 0.656250 0.625000
vt 0.562500 0.937500
vt 0.687500 0.625000
s 1
f 25/1/1 20/2/1 22/3/1
f 22/3/2 1/4/2 14/5/2
f 14/6/3 2/7/3 12/8/3
f 12/8/4 23/9/4 25/1/4
f 1/10/5 23/9/5 2/11/5
f 22/9/6 12/12/6 25/13/6
f 17/1/3 4/2/3 6/3/3
f 6/3/4 3/4/4 5/5/4
f 5/6/1 7/7/1 9/8/1
f 9/8/2 15/9/2 17/1/2
f 3/10/5 15/9/5 7/11/5
f 6/9/6 9/12/6 17/13/6
f 13/14/6 8/15/6 10/16/6
f 10/16/1 5/17/1 9/18/1
f 9/19/5 12/20/5 14/21/5
f 14/21/3 11/22/3 13/14/3
f 5/3/4 11/22/4 12/23/4
f 10/22/2 14/24/2 13/25/2
f 21/1/4 16/2/4 18/3/4
f 18/3/1 15/4/1 17/5/1
f 17/6/2 20/7/2 22/8/2
f 22/8/3 19/9/3 21/1/3
f 15/10/5 19/9/5 20/11/5
f 18/9/6 22/12/6 21/13/6
f 28/1/2 24/2/2 26/3/2
f 26/3/3 23/4/3 25/5/3
f 25/6/4 4/7/4 6/8/4
f 6/8/1 27/9/1 28/1/1
f 23/10/5 27/9/5 4/11/5
f 26/9/6 6/12/6 28/13/6
f 25/1/1 23/9/1 20/2/1
f 22/3/2 20/2/2 1/4/2
f 14/6/3 1/26/3 2/7/3
f 12/8/4 2/7/4 23/9/4
f 1/10/5 20/2/5 23/9/5
f 22/9/6 14/11/6 12/12/6
f 17/1/3 15/9/3 4/2/3
f 6/3/4 4/2/4 3/4/4
f 5/6/1 3/26/1 7/7/1
f 9/8/2 7/7/2 15/9/2
f 3/10/5 4/2/5 15/9/5
f 6/9/6 5/11/6 9/12/6
f 13/14/6 11/22/6 8/15/6
f 10/16/1 8/15/1 5/17/1
f 9/19/5 5/27/5 12/20/5
f 14/21/3 12/20/3 11/22/3
f 5/3/4 8/15/4 11/22/4
f 10/22/2 9/23/2 14/24/2
f 21/1/4 19/9/4 16/2/4
f 18/3/1 16/2/1 15/4/1
f 17/6/2 15/26/2 20/7/2
f 22/8/3 20/7/3 19/9/3
f 15/10/5 16/2/5 19/9/5
f 18/9/6 17/11/6 22/12/6
f 28/1/2 27/9/2 24/2/2
f 26/3/3 24/2/3 23/4/3
f 25/6/4 23/26/4 4/7/4
f 6/8/1 4/7/1 27/9/1
f 23/10/5 24/2/5 27/9/5
f 26/9/6 25/11/6 6/12/6
